<?xml version="1.0" standalone="no"?><!DOCTYPE svg PUBLIC "-//W3C//DTD SVG 1.1//EN" "http://www.w3.org/Graphics/SVG/1.1/DTD/svg11.dtd"><svg t="1586866821488" class="icon" viewBox="0 0 1024 1024" version="1.1" xmlns="http://www.w3.org/2000/svg" p-id="2408" xmlns:xlink="http://www.w3.org/1999/xlink" width="32" height="32"><defs><style type="text/css"></style></defs><path d="M792.5 446.6L512 727.1 231.5 446.6c-11.7-11.7-30.7-11.7-42.4 0s-11.7 30.7 0 42.4l301.8 301.7c5.9 5.9 13.5 8.8 21.2 8.8 7.7 0 15.4-2.9 21.2-8.8L835 489c11.7-11.7 11.7-30.7 0-42.4-11.8-11.7-30.8-11.7-42.5 0zM490.8 577.4c5.9 5.9 13.5 8.8 21.2 8.8 7.7 0 15.4-2.9 21.2-8.8L835 275.7c11.7-11.7 11.7-30.7 0-42.4s-30.7-11.7-42.4 0L512 513.8 231.5 233.3c-11.7-11.7-30.7-11.7-42.4 0s-11.7 30.7 0 42.4l301.7 301.7z" p-id="2409" fill="#2A579A"></path></svg>